Music video by Kylie Minogue performing Flower. P Line (p) 2012, the copyright in this audiovisual recording is owned by EMI Records Ltd.


		           1080p Full HD MP4 Video
                                     +
                            96 kbps/VBR M4A Audio

Cover:  
http://www.shotpix.com/images/91349185917153877037.jpg

Sing along!
English subtitles included.

General
Format                         : MPEG-4
Format profile                 : Base Media / Version 2
Codec ID                       : mp42
File size                      : 34.7 MiB
Duration                       : 3mn 38s
Overall bit rate mode          : Variable
Overall bit rate               : 1 334 Kbps


Video
ID                             : 1
Format                         : AVC
Format/Info                    : Advanced Video Codec
Duration                       : 3mn 38s
Bit rate mode                  : Variable
Bit rate                       : 1 200 Kbps
Width                          : 1 920 pixels
Height                         : 1 080 pixels
Display aspect ratio           : 16:9
Frame rate mode                : Constant
Frame rate                     : 25.000 fps
Color space                    : YUV
Chroma subsampling             : 4:2:0
Stream size                    : 31.3 MiB (90%)


Audio
ID                             : 2
Format                         : AAC
Format/Info                    : Advanced Audio Codec
Format profile                 : LC
Duration                       : 3mn 38s
Bit rate mode                  : Variable
Bit rate                       : 126 Kbps
Maximum bit rate               : 147 Kbps
Channel(s)                     : 2 channels
Channel positions              : Front: L R
Sampling rate                  : 48.0 KHz
Stream size                    : 3.27 MiB (9%)




Screens:

 
http://www.shotpix.com/images/87286664831270459349.jpg 
http://www.shotpix.com/images/70383576179822802558.jpg


Thumbs:
 
http://www.shotpix.com/images/04838779216905092253.jpg


------------------------------------------------------------------------


Notes:

* Best played on VLC Media Player.
* Install shark007 codecs in case of any kind of problem in playback (For non-VLC Media Player users).
* Alternatively, install Core AVC codecs, the fastest decoder that there is coupled with Community Center Codec Pack and play on Windows Media Player Classic.
* Read NFO
* Help in seeding this torrent as much as you can. 

Greets to: srkfan, VYTO, MgB, staff members at ExtraTorrent, TPB,KAT, 1337x, PublicHD, Ahashare,
SilverTorrent, TorrentMafia, P2PDL, and all others


Encoder Notes: Looking For Early Access To Anything You Can Provide DVDScr, R5, DVDRips, BluRay, Direct Audio, Early Music
Releases, Seedboxes, Links, Dedicated Servers anything u can provide, Advance / Promo CDs/DVDs. If You Got anything to
offer contact me at "contact@tinym.eu"

                                   Enjoy!